<svg height="512pt" viewBox="-1 0 512 512" width="512pt" xmlns="http://www.w3.org/2000/svg"><path d="m491.25 168.75c-10.339844 0-18.75 8.410156-18.75 18.75v118.492188h-15c-47.558594 0-86.25 38.691406-86.25 86.25h-30c0-59.019532 44.210938-107.90625 101.25-115.289063v-258.203125c0-10.339844-8.410156-18.75-18.75-18.75s-18.75 8.410156-18.75 18.75v219.375h-30v-185.625c0-10.339844-8.410156-18.75-18.75-18.75s-18.75 8.410156-18.75 18.75v185.625h-30v-118.125c0-10.339844-8.410156-18.75-18.75-18.75s-18.75 8.410156-18.75 18.75v392h206.25v-55.800781l25.269531-50.539063c4.519531-9.035156 8.480469-25.816406 8.480469-35.917968v-182.242188c0-10.339844-8.410156-18.75-18.75-18.75zm0 0"/><path d="m491.25 33.75c-10.339844 0-18.75 8.410156-18.75 18.75v90.003906c5.773438-2.414062 12.109375-3.753906 18.75-3.753906s12.976562 1.339844 18.75 3.753906v-90.003906c0-10.339844-8.410156-18.75-18.75-18.75zm0 0"/><path d="m240 512v-392c0-10.339844-8.410156-18.75-18.75-18.75s-18.75 8.410156-18.75 18.75v118.125h-30v-185.625c0-10.339844-8.410156-18.75-18.75-18.75s-18.75 8.410156-18.75 18.75v185.625h-30v-219.375c0-10.339844-8.410156-18.75-18.75-18.75s-18.75 8.410156-18.75 18.75v258.207031c57.039062 7.378907 101.25 56.269531 101.25 115.285157h-30c0-47.558594-38.691406-86.25-86.25-86.25h-15v-118.492188c0-10.339844-8.410156-18.75-18.75-18.75s-18.75 8.410156-18.75 18.75v182.242188c0 10.101562 3.960938 26.882812 8.480469 35.914062l25.269531 50.542969v55.800781zm0 0"/><path d="m18.75 138.75c6.640625 0 12.976562 1.339844 18.75 3.753906v-90.003906c0-10.339844-8.410156-18.75-18.75-18.75s-18.75 8.410156-18.75 18.75v90.003906c5.773438-2.414062 12.109375-3.753906 18.75-3.753906zm0 0"/></svg>